<mxfile host="app.diagrams.net" modified="2024-04-15T00:03:58.545Z" agent="Mozilla/5.0 (Windows NT 10.0; Win64; x64) AppleWebKit/537.36 (KHTML, like Gecko) Chrome/123.0.0.0 Safari/537.36" version="24.2.2" etag="TccCzucKx1kdHk4wCZbz" type="github">
  <diagram name="PÃ¡gina-1" id="sHhRmDqUUGgEBzNl0bfQ">
    <mxGraphModel>
      <root>
        <mxCell id="0" />
        <mxCell id="1" parent="0" />
      </root>
    </mxGraphModel>
  </diagram>
</mxfile>
